<svg id="Layer_1" data-name="Layer 1" xmlns="http://www.w3.org/2000/svg" viewBox="0 0 391.08 391.08"><defs><style>.cls-1{fill:#0b40c4;}.cls-2{fill:#fff;}.cls-3{fill:none;stroke:#fff;stroke-miterlimit:10;stroke-width:5px;}</style></defs><rect class="cls-1" x="17.85" y="17.85" width="355.38" height="355.38" transform="translate(-19.64 21.85) rotate(-6.09)"/><path class="cls-2" d="M246,92.1c-.72-.18-1.44-.35-2.18-.51,0,0-16.07-4.15-34.52,6-7.08,3.91-11.59,6.5-15.14,8.11v-.24a41.06,41.06,0,0,1-8,2.42,41.21,41.21,0,0,1-8.29-.68l0,.23c-3.81-.82-8.77-2.4-16.51-4.73-20.18-6-35,1.39-35,1.39l-2,1c-28.28,13.76-43.57,45.11-37.58,76C103,264.37,145,314.65,165.06,312.51s21.22-35.41,39-37.33,25.89,30.41,46,28.26,50.54-60.15,48.76-145C298.11,127,276.55,99.59,246,92.1Z"/><path class="cls-1" d="M250.88,220.81l2.83,26.54-92.13,9.83-2.23-21,39.87-46.14q5.76-6.76,7.51-11.31a19.24,19.24,0,0,0,1.27-8.94,11.07,11.07,0,0,0-4.85-8.55q-4.23-2.79-11.67-2a25.28,25.28,0,0,0-11.77,4.25,24.4,24.4,0,0,0-8.13,9.5l-26.33-11.21a48.9,48.9,0,0,1,17.51-20.16q11.81-7.93,28.88-9.75A61.37,61.37,0,0,1,216,133.74a37.36,37.36,0,0,1,17.57,10.87A32.15,32.15,0,0,1,241.46,163a41.3,41.3,0,0,1-2.2,18.61q-3.24,9-13.91,21.06l-20.11,23Z"/><rect class="cls-3" x="40.34" y="41.54" width="308.88" height="308.88" transform="translate(-19.69 21.77) rotate(-6.09)"/></svg>