<svg id="Layer_1" data-name="Layer 1" xmlns="http://www.w3.org/2000/svg" viewBox="0 0 538.86 396.52"><defs><style>.cls-1{fill:#ffb000;}</style></defs><rect class="cls-1" x="28.35" y="59.38" width="482.17" height="277.75" transform="translate(-43.19 79.22) rotate(-15.5)"/><path d="M54.36,230.35l2.54-.7-2.36-8.51-2,.56-.25-.9a7.81,7.81,0,0,0,2.14-1.47l1.08-.3,2.84,10.22,2.29-.63.32,1.18-6.25,1.73Z"/><path d="M62.85,228.33a1.07,1.07,0,1,1,2.05-.57,1.07,1.07,0,1,1-2.05.57Z"/><path d="M80.27,217.49a7.63,7.63,0,0,1-6.07-1.84,7.43,7.43,0,0,1-4.24,4.7l-.8-.89C71.59,218.39,73.58,216,73,214l-.21-.77,1.33-.38.22.78c.54,2,3.51,3,6.15,2.65Zm1.86,2.24-5.7,1.59,1.4,5.05-1.28.36-1.4-5.06-5.63,1.56-.29-1,12.6-3.5Z"/><path d="M87.05,212.78a7.33,7.33,0,0,0,5.2,5L91.74,219a8,8,0,0,1-4.58-3.41A8,8,0,0,1,85,221.17l-1-.81a7.69,7.69,0,0,0,1.86-7.24l-.7-2.5,1.27-.35Zm9.19.68-2.31.64,2,7.23-1.28.36L90.8,207.75l1.27-.36L93.64,213l2.3-.64Z"/><path d="M99.78,221.31a2.42,2.42,0,0,0,1-2.55.58.58,0,0,1-.17.06,1,1,0,0,1-1.32-.7,1.05,1.05,0,0,1,.8-1.3c.75-.2,1.38.31,1.66,1.35a3.58,3.58,0,0,1-1.37,3.88Z"/><path d="M112.48,204.67,104.25,207l-.28-1,3.47-1-.47-1.7,1.27-.35.47,1.69,3.49-1Zm-2.47,7.1c-2,.54-3.61-.11-4.05-1.68s.64-3,2.62-3.5,3.63.1,4.06,1.65S112,211.22,110,211.77Zm-.27-1c1.26-.35,2-1.21,1.68-2.19s-1.31-1.35-2.57-1-1.94,1.21-1.67,2.18S108.46,211.13,109.74,210.77Zm.62,5.1,8-2.22.29,1-9.3,2.58-1.11-4,1.27-.35Zm7.26-10.62.3,1.07-2.07.58,1.33,4.79-1.28.35L113,201.59l1.28-.35,1.27,4.58Z"/><path d="M127.51,205.94a6,6,0,0,1-4.24-2.21,6.25,6.25,0,0,1-2.53,4.52l-.95-.82A5.33,5.33,0,0,0,122,201.8l-.14-.48-3.11.86-.28-1,7.45-2.07.29,1-3.07.85.13.48a5,5,0,0,0,4.58,3.32Zm4.92,2.47c.46,1.65-1.05,3.09-3.92,3.89s-4.91.34-5.37-1.31,1.07-3.09,3.93-3.89S132,206.76,132.43,208.41Zm-1.26.35c-.28-1-1.72-1.26-3.82-.68s-3.21,1.54-2.93,2.56,1.72,1.24,3.82.66S131.45,209.77,131.17,208.76ZM129,201.05l-1-3.61,1.29-.36,2.31,8.31-1.29.36-1-3.66-2.75.76-.29-1Z"/><path d="M137.77,198.71a7.33,7.33,0,0,0,5.21,5l-.52,1.23a8,8,0,0,1-4.58-3.41,8.06,8.06,0,0,1-2.18,5.59l-1-.82a7.65,7.65,0,0,0,1.86-7.23l-.69-2.51,1.26-.35Zm9.19.68-2.3.64,2,7.23-1.27.36-3.87-13.94,1.28-.35,1.56,5.64,2.31-.64Z"/><path d="M156.05,192l3.44-.95.29,1-8.23,2.28-.29-1,3.52-1-.58-2.07,1.28-.35Zm4.28,4.63a3.52,3.52,0,1,1-4.3-2.28A3.28,3.28,0,0,1,160.33,196.67Zm-1.21.34a2.27,2.27,0,1,0-1.6,2.75A2.18,2.18,0,0,0,159.12,197Zm6.52-2.7-2.28.63,2,7.14-1.28.36L160.2,188.5l1.27-.35,1.59,5.72,2.29-.63Z"/><path d="M169.44,196a33.49,33.49,0,0,0,6.16-2.38l.44,1a33.07,33.07,0,0,1-6.46,2.48l-1.11.31L166,188.34l1.26-.35Zm10.4-5.82-2.24.62,2,7.33-1.28.35-3.87-13.95,1.28-.35,1.54,5.57,2.24-.63Z"/><path d="M182.14,191a15.2,15.2,0,0,1,.1-8.52l1,.16a15.68,15.68,0,0,0,4.15,15l-.77.66A15.12,15.12,0,0,1,182.14,191Z"/><path d="M194,183.74c.54,1.94-.65,3.71-2.82,4.31s-4.11-.3-4.65-2.24.66-3.72,2.83-4.32S193.5,181.78,194,183.74Zm-6.63,7.8a65.31,65.31,0,0,0,9-3l.37.92a52.07,52.07,0,0,1-8.87,3.11Zm.41-6.08a2.61,2.61,0,1,0,1.88-2.88A2.35,2.35,0,0,0,187.82,185.46Zm8.14-6.9,3.88,14-1.28.35-3.88-14Z"/><path d="M203,193.24a15.66,15.66,0,0,0-4.15-15l.76-.65A15.25,15.25,0,0,1,204,193.42Z"/><path d="M208.28,191.21a2.42,2.42,0,0,0,1-2.55.56.56,0,0,1-.16.07,1,1,0,0,1-1.32-.71,1,1,0,0,1,.79-1.29c.75-.21,1.38.3,1.67,1.35a3.61,3.61,0,0,1-1.37,3.88Z"/><path d="M215.72,185.6l2.53-.71-2.36-8.51-2,.57-.25-.91a7.31,7.31,0,0,0,2.14-1.46l1.09-.3,2.84,10.22,2.28-.64.33,1.18-6.25,1.74Z"/><path d="M222.46,177.31a1.09,1.09,0,0,1,.72-1.39,1.1,1.1,0,0,1,1.34.82,1.07,1.07,0,1,1-2.06.57Zm2.26,9.34a2.4,2.4,0,0,0,1-2.54l-.17.06a1,1,0,0,1-1.32-.71,1,1,0,0,1,.8-1.29c.75-.21,1.37.3,1.66,1.35a3.58,3.58,0,0,1-1.37,3.88Z"/><path d="M237.42,170l-8.23,2.28-.28-1,3.47-1-.47-1.7,1.27-.35.47,1.69,3.49-1Zm-2.47,7.1c-2,.55-3.61-.1-4-1.67s.64-3,2.62-3.51,3.62.1,4.06,1.66S236.93,176.57,235,177.11Zm-.27-1c1.26-.35,1.95-1.22,1.68-2.2s-1.31-1.34-2.57-1-1.94,1.21-1.67,2.17S233.4,176.47,234.68,176.12Zm.62,5.1,8-2.23.29,1-9.3,2.58-1.11-4,1.27-.36Zm7.26-10.62.3,1.07-2.07.57,1.33,4.8-1.28.35-2.9-10.45,1.28-.36,1.27,4.59Z"/><path d="M64.12,268.2c2.71-4.12,3.73-6.85,3.19-8.81a2.09,2.09,0,0,0-2.73-1.67,3.3,3.3,0,0,0-2,2l-1.05-.58a4.5,4.5,0,0,1,2.89-2.61A3.24,3.24,0,0,1,68.68,259c.63,2.28-.51,5.09-2.49,8.37.58-.21,1.26-.47,1.84-.63l3.16-.88.34,1.23-7.17,2Z"/><path d="M73.2,265.65a1.07,1.07,0,1,1,2-.57,1.07,1.07,0,1,1-2,.57Z"/><path d="M90.62,254.8A7.59,7.59,0,0,1,84.55,253a7.43,7.43,0,0,1-4.24,4.7l-.8-.89c2.43-1.08,4.42-3.44,3.87-5.43l-.21-.78,1.33-.37.22.78c.54,2,3.51,3,6.15,2.65Zm1.87,2.25-5.71,1.59,1.4,5.05-1.28.36L85.5,259l-5.63,1.56-.29-1.06L92.18,256Z"/><path d="M97.4,250.09a7.29,7.29,0,0,0,5.2,5l-.51,1.23a8,8,0,0,1-4.58-3.4,8,8,0,0,1-2.19,5.58l-1-.81a7.7,7.7,0,0,0,1.86-7.24l-.69-2.5,1.26-.35Zm9.19.69-2.3.64,2,7.23L105,259l-3.87-13.94,1.28-.36,1.56,5.65,2.3-.64Z"/><path d="M110.13,258.62a2.4,2.4,0,0,0,1-2.54l-.17.06a1,1,0,0,1-1.32-.71,1.06,1.06,0,0,1,.8-1.29c.75-.21,1.38.31,1.67,1.35a3.61,3.61,0,0,1-1.37,3.88Z"/><path d="M122.83,242l-8.23,2.29-.28-1,3.47-1-.47-1.7,1.27-.35.47,1.69,3.49-1Zm-2.47,7.11c-2,.54-3.61-.11-4-1.68s.64-3,2.62-3.5,3.63.09,4.06,1.65S122.34,248.54,120.36,249.09Zm-.27-1c1.26-.35,2-1.21,1.68-2.19s-1.31-1.35-2.57-1-1.94,1.21-1.67,2.17S118.81,248.44,120.09,248.09Zm.63,5.1,8-2.22.29,1-9.3,2.58-1.11-4,1.28-.35ZM128,242.57l.3,1.07-2.07.58,1.33,4.79-1.28.35-2.9-10.45,1.28-.36,1.27,4.59Z"/><path d="M137.86,243.26a6,6,0,0,1-4.23-2.21,6.29,6.29,0,0,1-2.54,4.52l-1-.82a5.33,5.33,0,0,0,2.23-5.63l-.13-.48-3.12.86-.28-1,7.45-2.07.29,1-3.07.85.14.48a5,5,0,0,0,4.57,3.32Zm4.92,2.47c.46,1.65-1.05,3.09-3.91,3.89s-4.92.34-5.38-1.31,1.07-3.1,3.93-3.89S142.32,244.08,142.78,245.73Zm-1.26.35c-.28-1-1.72-1.26-3.82-.68s-3.21,1.54-2.93,2.55,1.72,1.25,3.82.67S141.8,247.09,141.52,246.08Zm-2.21-7.71-1-3.61,1.29-.36,2.31,8.31-1.29.36-1-3.66-2.75.76-.29-1Z"/><path d="M148.12,236a7.33,7.33,0,0,0,5.21,5l-.52,1.23a8,8,0,0,1-4.58-3.41,8,8,0,0,1-2.18,5.58l-1.05-.81a7.66,7.66,0,0,0,1.86-7.24l-.69-2.5,1.26-.35Zm9.19.68-2.3.64,2,7.23-1.27.36L151.87,231l1.28-.36,1.56,5.65,2.31-.64Z"/><path d="M164,240.14l2.53-.7-2.36-8.51-2,.56-.25-.9a7.51,7.51,0,0,0,2.14-1.47l1.09-.3L167.93,239l2.29-.63.33,1.18-6.26,1.73Z"/><path d="M173,241.2a2.43,2.43,0,0,0,1-2.55.44.44,0,0,1-.16.06,1,1,0,0,1-1.32-.7,1.05,1.05,0,0,1,.8-1.3c.74-.2,1.37.31,1.66,1.35a3.59,3.59,0,0,1-1.37,3.88Z"/><path d="M182.41,229.71c-2.09.58-3.94-.24-4.45-2.08s.65-3.53,2.73-4.11,4,.26,4.47,2.11S184.49,229.14,182.41,229.71Zm-.29-1a2.16,2.16,0,1,0-2.93-1.4A2.23,2.23,0,0,0,182.12,228.69Zm10,4.87.28,1-9.48,2.62-1-3.5,7.75-2.15-.39-1.41-7.78,2.16-.28-1,9-2.5.93,3.37-7.74,2.15.42,1.54Zm-2-5.47-1.28.36-2-7.16,1.27-.35Z"/><path d="M193.75,227.94a15.2,15.2,0,0,1,.1-8.52l1,.16a15.66,15.66,0,0,0,4.15,15l-.77.67A15.12,15.12,0,0,1,193.75,227.94Z"/><path d="M207.69,215.5l2.31,8.32-1.29.36-.51-1.84-3.61,1-.29-1,3.61-1-.53-1.91-3.41.94c-.32,2.46-2.05,4.64-4.8,6.31l-.8-.88c3.12-1.86,4.73-4.3,4.31-6.75l-5,1.39-.29-1,6.37-1.77a6.42,6.42,0,0,1,.25,1.61l3.08-.85-.69-2.49ZM200.84,227l9.33-2.59,1.38,5-1.29.36-1.09-3.95-8,2.23Z"/><path d="M220.38,220.14a6.07,6.07,0,0,1-4.4-2.35,6.27,6.27,0,0,1-2.53,4.54l-.94-.83a5.42,5.42,0,0,0,2.19-5.77l-.38-1.37,1.28-.35.38,1.37a5.14,5.14,0,0,0,4.76,3.57Zm-5.24,3.11,9.34-2.59,1.34,4.85-1.27.36L223.49,222l-8.06,2.24ZM222,211.56l2.33,8.38-1.28.36-2.32-8.39Z"/><path d="M229.23,217.23a1.09,1.09,0,0,1,.72-1.39,1.1,1.1,0,0,1,1.34.82,1.07,1.07,0,1,1-2.06.57Z"/><path d="M240.88,207.42c1,3.54-.77,6.83-4.48,9.15l-.8-.89c3-1.9,4.62-4.38,4.18-6.85l-5.06,1.4-.28-1Zm6.76,9.09c.47,1.68-1,3.21-3.79,4s-4.83.23-5.29-1.45,1-3.2,3.79-4S247.17,214.82,247.64,216.51Zm-1.26.35c-.3-1.07-1.75-1.35-3.75-.8s-3.11,1.55-2.81,2.62,1.74,1.35,3.75.79S246.68,217.92,246.38,216.86Zm1.05-8.5.29,1.06-2.07.58,1,3.67-1.28.35-2.31-8.34,1.28-.35,1,3.61Z"/><path d="M250.43,211.38c2.3-1.07,4.41-3.75,3.79-6l-.08-.3-4.62,1.28-.29-1,10.56-2.93.29,1-4.62,1.29.08.29c.62,2.23,3.81,3.4,6.35,3.12l-.23,1.17a7.71,7.71,0,0,1-6.26-2.26,7.78,7.78,0,0,1-4.13,5.2Zm13.15.58.29,1.06-12.66,3.51-.3-1.06,5.7-1.58-.94-3.37,1.28-.36.93,3.38Z"/><path d="M271.6,202.41c.53,2-.65,3.72-2.83,4.32s-4.1-.3-4.64-2.24.66-3.72,2.82-4.32S271.05,200.45,271.6,202.41ZM265,210.22a66.34,66.34,0,0,0,9-3l.37.91a51.32,51.32,0,0,1-8.87,3.12Zm.41-6.08a2.61,2.61,0,1,0,1.88-2.88A2.34,2.34,0,0,0,265.37,204.14Zm8.14-6.9,3.88,14-1.28.35-3.87-14Z"/><path d="M288.44,198.5a20.24,20.24,0,0,1-4.18,1.58l-.77.21-1.31-4.73,4.73-1.31.29,1-3.47,1,.74,2.67A17.67,17.67,0,0,0,288,197.5Zm6.83-.09.29,1.06L282.93,203l-.29-1.06Zm-4.91,4.16c.51,1.85,3,2.65,5.68,2.31l-.22,1.14a6.94,6.94,0,0,1-5.63-1.52,7,7,0,0,1-4.08,4.21l-.75-.86c2.44-1.09,4.21-3.07,3.69-4.92l-.12-.43,1.31-.36Zm3.46-5.15-4.8,1.34L287.7,194l4.69-1.3.28,1-3.42.95.74,2.68,3.55-1Z"/><path d="M309.39,193.77l.29,1L297,198.31l-.28-1Zm-12.15-.24c-.43-1.58,1.16-2.94,4.23-3.79s5.14-.5,5.57,1.07-1.16,2.92-4.23,3.77S297.68,195.1,297.24,193.53Zm1.31-.37c.26.94,1.71,1.1,4,.47s3.44-1.53,3.19-2.46-1.72-1.1-4-.47S298.29,192.23,298.55,193.16Zm2.91,10.12,8.61-2.39.28,1-9.86,2.73-.93-3.34,8.18-2.27-.34-1.25L299.17,200l-.27-1,9.49-2.63.87,3.14-8.2,2.27Z"/><path d="M318.18,194.92a32.79,32.79,0,0,0,6.16-2.38l.44,1a33.72,33.72,0,0,1-6.46,2.48l-1.11.31-2.51-9.07,1.26-.35Zm10.4-5.81-2.24.62,2,7.33-1.28.35-3.87-13.95,1.28-.36,1.54,5.57,2.24-.62Z"/><path d="M332.6,191.14a37.08,37.08,0,0,0,6.14-2.19l.41,1a36.85,36.85,0,0,1-6.45,2.29l-1.09.31L329,183.2l6.51-1.8.29,1-5.23,1.45.8,2.88,4.91-1.37.29,1-4.92,1.37Zm10.36-6-2.31.64,2,7.26-1.28.36-3.86-13.94,1.27-.36,1.56,5.6,2.3-.64Z"/><path d="M346.89,186.82a24.92,24.92,0,0,0,4.36-1.67l.43,1.07a26.75,26.75,0,0,1-4.87,1.82l-.89.24-2.39-8.63,1.27-.36Zm7.32-12,3.87,13.94-1.23.34-2-7.2-2,.54,1.8,6.51-1.2.33-3.58-12.93,1.19-.33,1.49,5.37,2-.55L353,175.2Z"/><path d="M364.46,173.64c1.11,4,.25,8.09-3.76,11.65l-1-.85c3.25-2.83,4.37-6,3.72-9.41l-5.24,1.45-.29-1Zm3.67-2.64L372,185l-1.28.36-3.87-14Z"/><path d="M377.33,172.25c-.47-1.71.68-3.29,2.76-3.87s3.87.19,4.35,1.9-.69,3.27-2.75,3.84S377.8,174,377.33,172.25Zm9.51,2.2A33.79,33.79,0,0,1,383,176l1.39,5-1.27.36-1.38-4.95c-1.36.45-2.68.83-3.83,1.15l-.47-1a66.87,66.87,0,0,0,9-3Zm-8.28-2.54c.3,1.09,1.47,1.55,2.84,1.17s2.11-1.37,1.81-2.46-1.47-1.55-2.82-1.18S378.26,170.82,378.56,171.91Zm8.23-6.07,3.87,13.95-1.27.36-3.87-14Z"/><path d="M394.38,166.28l2.83-.78.29,1-6.92,1.92-.29-1,2.83-.79-.55-2,1.26-.34Zm3.79,4.49a3.1,3.1,0,1,1-3.86-2.34A3.07,3.07,0,0,1,398.17,170.77Zm-1.13.32a2,2,0,0,0-2.44-1.59,2.22,2.22,0,0,0,1.18,4.23A2,2,0,0,0,397,171.09Zm4.42-9.35,3.87,13.95-1.23.34-1.94-7-1.79.49,1.76,6.35-1.2.33-3.59-13,1.2-.33,1.54,5.57,1.79-.5-1.64-5.89Z"/><path d="M408.16,160.35l1.41-.39.94,3.39.44,1.75a4.13,4.13,0,0,1,2.41-2.19c1.77-.49,2.9.44,3.5,2.6l1.48,5.35-1.41.39-1.44-5.16c-.44-1.59-1.1-2.12-2.22-1.81-.88.24-1.35.84-2,1.93l1.7,6.13-1.42.39Z"/><path d="M420.06,167.05l-1.48-5.35,1.41-.4,1.44,5.18c.44,1.58,1.09,2.12,2.21,1.81.87-.25,1.36-.83,1.89-2.07l-1.66-6,1.41-.39,2.35,8.45-1.19.32-.47-1.29h-.05a3.74,3.74,0,0,1-2.38,2.3C421.77,170.13,420.66,169.2,420.06,167.05Z"/><path d="M428.12,159.05l1.17-.32.46,1.17h.05a4.16,4.16,0,0,1,2.43-2.21c1.78-.5,2.9.43,3.5,2.59l1.49,5.35-1.42.4-1.43-5.17c-.44-1.58-1.11-2.12-2.23-1.81-.87.24-1.34.84-2,1.93l1.7,6.13-1.41.4Z"/><path d="M438.19,160.81c-.76-2.73.49-4.92,2.42-5.46a3.53,3.53,0,0,1,2.66.34l-.48-1.44-.91-3.26,1.42-.39L446.74,163l-1.16.32-.41-1h0a4,4,0,0,1-2.24,1.91C440.79,164.85,439,163.63,438.19,160.81Zm6.53.42-1.23-4.43a3.09,3.09,0,0,0-2.3-.32c-1.36.38-2.07,2-1.54,3.91s1.74,3,3.24,2.61A3,3,0,0,0,444.72,161.23Z"/><path d="M447.27,153.74l1.16-.32.55,1.5h0a3,3,0,0,1,1.91-2.42,1.86,1.86,0,0,1,.95-.07l.08,1.32a2,2,0,0,0-.86.09c-.7.19-1.43.93-1.59,2.54l1.5,5.42-1.41.4Z"/><path d="M453.66,156.52c-.76-2.74.62-5,2.58-5.5,2.15-.6,3.79.62,4.46,3a4.74,4.74,0,0,1,.16.83l-5.69,1.58a2.91,2.91,0,0,0,3.62,2.18,3.85,3.85,0,0,0,1.93-1.26l.77.79a5.17,5.17,0,0,1-2.56,1.65C456.69,160.44,454.44,159.31,453.66,156.52Zm5.74-2.33c-.47-1.71-1.51-2.41-2.83-2a2.69,2.69,0,0,0-1.7,3.3Z"/><path d="M462.31,154.12c-.76-2.73.49-4.92,2.42-5.46a3.58,3.58,0,0,1,2.66.34l-.49-1.44-.9-3.26,1.42-.39,3.43,12.39-1.15.31-.42-1h0a3.88,3.88,0,0,1-2.23,1.91C464.9,158.16,463.09,156.94,462.31,154.12Zm6.53.42-1.23-4.43a3.1,3.1,0,0,0-2.3-.32c-1.37.38-2.08,2-1.54,3.91s1.74,3,3.23,2.61A3,3,0,0,0,468.84,154.54Z"/><path d="M473.71,157.78a2.43,2.43,0,0,0,1-2.55.46.46,0,0,1-.16.07,1,1,0,0,1-1.32-.71,1,1,0,0,1,.8-1.29c.74-.21,1.37.3,1.66,1.35a3.59,3.59,0,0,1-1.37,3.88Z"/><path d="M69.8,284.81l-1.3-4.68-1.26.35L67,279.41l1.3-.45-.49-2.41,1.18-.33.66,2.37,2.29-.64.32,1.15-2.29.64,1.31,4.71c.29,1,.78,1.54,1.76,1.27a3.26,3.26,0,0,0,.9-.48l.57,1A5.29,5.29,0,0,1,73,287C71.19,287.46,70.27,286.51,69.8,284.81Z"/><path d="M72.71,273.49l1.41-.4.94,3.39.44,1.76a4.13,4.13,0,0,1,2.41-2.19c1.77-.49,2.9.43,3.5,2.59L82.89,284l-1.41.39L80,279.22c-.44-1.58-1.1-2.12-2.22-1.81-.87.24-1.34.84-2,1.94l1.7,6.13-1.42.39Z"/><path d="M83.77,279.21c-.78-2.81.62-5,2.69-5.53s4.37.54,5.15,3.36-.62,4.93-2.69,5.5S84.55,282,83.77,279.21Zm6.38-1.77c-.54-1.94-1.9-3-3.36-2.58s-2.08,2-1.54,3.94,1.88,3,3.34,2.56S90.69,279.39,90.15,277.44Z"/><path d="M94,277.57l-1.48-5.35,1.42-.39L95.4,277c.44,1.57,1.09,2.11,2.21,1.8.87-.24,1.36-.83,1.89-2.07l-1.66-6,1.42-.39,2.34,8.45-1.18.33-.48-1.3,0,0a3.8,3.8,0,0,1-2.37,2.3C95.74,280.65,94.63,279.72,94,277.57Z"/><path d="M103.22,277.32l.45-1.13a4,4,0,0,0,2.78.3c1.12-.31,1.5-1.05,1.29-1.78s-1.34-1-2.37-1.07c-1.3-.11-2.8-.31-3.2-1.74s.41-2.7,2.25-3.21a4.65,4.65,0,0,1,2.89.22l-.43,1.11a3.31,3.31,0,0,0-2.15-.21c-1.06.3-1.39,1-1.21,1.65s1.23.84,2.28.94c1.36.12,2.85.25,3.29,1.85.38,1.37-.39,2.81-2.38,3.36A5.36,5.36,0,0,1,103.22,277.32Z"/><path d="M110.58,274c-.51-1.83.84-3.19,4.32-4.59-.3-1.09-1-2-2.33-1.65a4.9,4.9,0,0,0-2.29,1.6l-.83-.82a6.59,6.59,0,0,1,3-2c2.06-.57,3.31.57,3.89,2.66l1.44,5.19-1.17.33-.4-1h0a4.66,4.66,0,0,1-2.46,2A2.37,2.37,0,0,1,110.58,274Zm5.24-1.3-.66-2.36c-2.75,1.13-3.52,2.1-3.22,3.19a1.35,1.35,0,0,0,1.87.94A3.65,3.65,0,0,0,115.82,272.65Z"/><path d="M118.14,265.12l1.17-.32.46,1.18,0,0a4.22,4.22,0,0,1,2.43-2.21c1.78-.49,2.91.43,3.5,2.6l1.49,5.35-1.42.39-1.43-5.17c-.44-1.58-1.11-2.12-2.23-1.81-.87.24-1.34.84-2,1.94l1.7,6.13-1.41.39Z"/><path d="M128.21,266.89c-.76-2.74.49-4.93,2.42-5.47a3.58,3.58,0,0,1,2.66.34l-.48-1.44-.9-3.25,1.41-.4,3.44,12.39-1.16.32-.41-1h0a3.93,3.93,0,0,1-2.24,1.91C130.81,270.92,129,269.7,128.21,266.89Zm6.53.41-1.23-4.43a3.07,3.07,0,0,0-2.29-.32c-1.37.38-2.08,2-1.55,3.91s1.74,3,3.24,2.61A3,3,0,0,0,134.74,267.3Z"/><path d="M151.58,256.87,142,259.52l-1.31-4.74,9.47-2.63.28,1-8.19,2.27.74,2.69,8.29-2.3Zm1.85.93.29,1.06-12.63,3.5-.29-1.06Zm-.23,5.2c.45,1.62-1.11,3-4.08,3.85s-5,.42-5.47-1.2,1.1-3,4.07-3.84S152.75,261.39,153.2,263Zm-1.29.36c-.28-1-1.72-1.16-3.91-.55s-3.33,1.51-3.06,2.49,1.71,1.16,3.9.55S152.18,264.34,151.91,263.36Z"/><path d="M162.72,252.71c.53,1.94-.65,3.71-2.83,4.32s-4.1-.31-4.64-2.25.66-3.72,2.82-4.32S162.17,250.75,162.72,252.71Zm-6.64,7.8a65,65,0,0,0,9-3l.37.92a52.07,52.07,0,0,1-8.87,3.11Zm.41-6.07a2.61,2.61,0,1,0,1.88-2.89A2.35,2.35,0,0,0,156.49,254.44Zm8.14-6.9,3.88,14-1.28.36-3.87-14Z"/><path d="M177.84,251.78c-2.1.58-4-.32-4.53-2.26a3.45,3.45,0,0,1,2.72-4.27c2.13-.6,4,.32,4.56,2.25S180,251.19,177.84,251.78Zm-.29-1.06a2.3,2.3,0,1,0-3-1.55A2.28,2.28,0,0,0,177.55,250.72Zm7.17,4.93,2.1-.58.28,1-9.55,2.65-.29-1,2-.56-.84-3-1.91.53-.28-1,9.25-2.57.29,1-1.93.54Zm-4.16,1.16,2.9-.81-.84-3-2.9.8Zm5.2-11.46.29,1.05L184,247l1,3.44-1.28.35-2.19-7.89,1.28-.35.94,3.39Z"/><path d="M194.18,239.68l1.22-.34,3.59,13-1.21.33-1.89-6.79-1.76.48c.65,2.77,0,4.77-1.73,5.24s-3.5-1-4.34-4.05-.17-5.17,1.65-5.67,3.25.86,4.13,3.44l1.76-.49Zm-1.33,6.5c-.62-2.24-1.73-3.46-2.82-3.16s-1.42,1.92-.8,4.16,1.72,3.51,2.84,3.2S193.49,248.46,192.85,246.18Zm5.23-7.92,3.87,14-1.21.34-3.88-14Z"/><path d="M218.93,241.22a5.38,5.38,0,0,1-3.59-2.3,5.52,5.52,0,0,1-1.86,4,5.59,5.59,0,0,1-3.67-2.53,5.74,5.74,0,0,1-1.87,3.9l-.95-.79a5.06,5.06,0,0,0,1.62-5l-.49-1.77,1.26-.35.5,1.77a5.36,5.36,0,0,0,3.24,3.42,5.22,5.22,0,0,0,1-4.59l-.49-1.77,1.29-.36.49,1.77a4.76,4.76,0,0,0,4,3.46Zm1.66,2.69.3,1.06-12.65,3.51-.29-1.06Z"/><path d="M226.58,232c1.1,4,.43,8-3.57,11.53l-1-.8c3.24-2.88,4.23-6,3.56-9.35l-5.09,1.41-.29-1Zm4.09-2.74,3.87,13.93-1.28.36-2-7.31-3.27.9-.29-1,3.27-.91-1.55-5.58Z"/><path d="M237.91,237.28a33.21,33.21,0,0,0,6.16-2.38l.45,1a34.06,34.06,0,0,1-6.47,2.48l-1.1.3-2.52-9.07,1.26-.34Zm10.4-5.81-2.24.62,2,7.32-1.28.36-3.87-14,1.28-.35,1.54,5.57,2.24-.62Z"/><path d="M254.39,228.35c2.55-1,4.37-2.65,4.05-4.24l-4.31,1.2-.28-1,4.37-1.21-.4-1.45,1.27-.35.41,1.44,4.37-1.21.28,1-4.33,1.2c.54,1.53,3,2,5.67,1.54l-.13,1.08c-2.35.4-4.61.12-5.84-1-.45,1.63-2.25,3-4.48,3.9Zm12.33-1.54.29,1-12.62,3.5-.28-1Zm-10.51,5.63,9.66-2.68,1.21,4.39-1.27.35-.94-3.37-8.38,2.32Z"/><path d="M276.21,225a6,6,0,0,1-4.23-2.21,6.25,6.25,0,0,1-2.53,4.52l-.95-.82a5.34,5.34,0,0,0,2.22-5.63l-.13-.48-3.11.86-.28-1,7.45-2.07.28,1-3.06.85.13.49a5,5,0,0,0,4.57,3.32Zm4.93,2.47c.45,1.65-1.06,3.09-3.92,3.89s-4.91.34-5.37-1.31,1.07-3.1,3.93-3.89S280.68,225.8,281.14,227.45Zm-1.26.35c-.28-1-1.73-1.26-3.83-.68s-3.21,1.54-2.93,2.55,1.72,1.25,3.83.67S280.16,228.81,279.88,227.8Zm-2.21-7.71-1-3.61,1.29-.36,2.3,8.31-1.29.36-1-3.66-2.75.76-.29-1Z"/><path d="M295.31,219a31.17,31.17,0,0,1-6.35,2.28l-1.09.3-1.78-6.41,6.18-1.71.28,1-4.9,1.36,1.21,4.34a30.57,30.57,0,0,0,6-2.18ZM292,225.77l8-2.23.29,1-9.3,2.59-1.26-4.56,1.27-.36Zm7.12-11.09.3,1.06-2.07.57,1.36,4.9-1.28.35-2.8-10.09,1.28-.35,1.14,4.13Z"/><path d="M301.41,213.4c-.47-1.71.68-3.29,2.77-3.87s3.87.19,4.34,1.9-.68,3.27-2.75,3.85S301.89,215.1,301.41,213.4Zm9.51,2.21a35.63,35.63,0,0,1-3.87,1.57l1.4,5-1.28.35-1.37-4.95c-1.37.45-2.69.83-3.84,1.15l-.47-1a67.45,67.45,0,0,0,9.06-3Zm-8.28-2.55c.31,1.09,1.47,1.55,2.84,1.17s2.12-1.37,1.81-2.46-1.46-1.55-2.82-1.18S302.34,212,302.64,213.06Zm8.24-6.07,3.87,13.95-1.28.36-3.87-14Z"/><path d="M324,211.24c-2.1.58-4-.32-4.53-2.26a3.44,3.44,0,0,1,2.72-4.27c2.13-.6,4,.32,4.56,2.25S326.14,210.65,324,211.24Zm-.29-1.06a2.3,2.3,0,1,0-3-1.55A2.3,2.3,0,0,0,323.72,210.18Zm7.16,4.93,2.1-.58.28,1-9.55,2.65-.28-1,2-.57-.84-3-1.91.53-.29-1,9.26-2.57.28,1-1.93.53Zm-4.15,1.15,2.89-.8-.84-3-2.89.81Zm5.19-11.46.3,1.06-2.07.58,1,3.43-1.27.36-2.19-7.89,1.27-.35.95,3.39Z"/><path d="M340.35,199.13l1.21-.33,3.59,13-1.21.33-1.88-6.79-1.76.48c.65,2.77,0,4.77-1.73,5.24s-3.51-1-4.34-4.06-.18-5.16,1.64-5.66,3.25.85,4.14,3.44l1.76-.49ZM339,205.64c-.62-2.24-1.73-3.46-2.82-3.16s-1.43,1.92-.81,4.16,1.73,3.51,2.85,3.2S339.65,207.92,339,205.64Zm5.22-7.92,3.87,13.95-1.21.34L343,198.06Z"/><path d="M364.2,198.06a4.66,4.66,0,0,1-3.36-1.78,2.78,2.78,0,1,1-5.37,1.42,4.92,4.92,0,0,1-1.93,3.3l-.9-.75a4,4,0,0,0,1.72-4.08l-.25-.89,1.28-.35.24.89a4.12,4.12,0,0,0,2.93,2.62,4,4,0,0,0,1.15-3.75l-.25-.89,1.26-.35.25.89a3.82,3.82,0,0,0,3.6,2.6Zm1.34.86.29,1-12.66,3.51-.29-1Zm-10.42,5.55,9.52-2.64,1.3,4.7-9.52,2.64Zm2.26,3.33,7-2-.73-2.66-7,1.95Z"/><path d="M369.48,207.35a15.59,15.59,0,0,0-4.15-15l.76-.65a15.25,15.25,0,0,1,4.38,15.79Z"/><path d="M79.27,323.73l.46-1.13a3.93,3.93,0,0,0,3.2.52,2.18,2.18,0,0,0,1.73-2.76c-.38-1.37-1.56-2-4.19-1.3l-.3-1.09c2.35-.65,2.9-1.82,2.56-3.05a1.85,1.85,0,0,0-2.44-1.3,3.64,3.64,0,0,0-2.05,1.79l-1-.69A4.72,4.72,0,0,1,80,312.46c1.91-.53,3.59.11,4.1,2a2.94,2.94,0,0,1-1.27,3.32l0,.06A3,3,0,0,1,86.12,320c.56,2-.74,3.7-2.76,4.26A4.9,4.9,0,0,1,79.27,323.73Z"/><path d="M88.72,321.63a1.07,1.07,0,1,1,2.06-.57,1.07,1.07,0,1,1-2.06.57Z"/><path d="M97.29,316.59a22.77,22.77,0,0,0,4.6-1.73l.4,1a23.51,23.51,0,0,1-5.05,1.85l-.92.26-2.44-8.82,5.19-1.44.29,1-3.93,1.09Zm7.47-12.26,3.87,14-1.23.34-2-7.31-2,.54,1.83,6.62-1.19.33-3.59-12.95,1.19-.33,1.47,5.29,2-.55-1.56-5.6Z"/><path d="M116.22,309l-6.36,1.76-1.72-6.19,6.37-1.76.33,1.21,3.21-.89-.63-2.25,1.29-.36,2.29,8.24-1.29.36-.61-2.21-3.21.89Zm-2.67-4.82-3.86,1.07,1.15,4.15,3.86-1.07Zm8.33,7.62c.46,1.67-1,3.13-3.92,3.92s-4.91.32-5.37-1.34,1-3.12,3.91-3.91S121.41,310.08,121.88,311.76Zm-1.26.35c-.29-1-1.73-1.28-3.85-.69s-3.19,1.54-2.9,2.57,1.72,1.28,3.81.7S120.9,313.14,120.62,312.11Zm-5.49-7.1.48,1.73,3.2-.89-.48-1.73Z"/><path d="M127.23,302.1a7.29,7.29,0,0,0,5.21,5l-.52,1.24a8,8,0,0,1-4.58-3.41,8,8,0,0,1-2.18,5.58l-1-.81a7.67,7.67,0,0,0,1.86-7.24l-.69-2.5,1.26-.35Zm9.19.69-2.3.64,2,7.23-1.27.36L131,297.08l1.28-.36,1.56,5.65,2.31-.64Z"/><path d="M141.18,302.42l-.31-1.13,6.64-5,.34,1.22-3.3,2.38-2.09,1.51,0,.07,2.57.22,4,.34.35,1.24Z"/><path d="M153.86,298.62c-2.1.58-4-.32-4.53-2.26a3.45,3.45,0,0,1,2.72-4.27c2.13-.59,4,.32,4.56,2.25S156,298,153.86,298.62Zm-.29-1.06a2.3,2.3,0,1,0-3-1.55A2.28,2.28,0,0,0,153.57,297.56Zm7.16,4.94,2.1-.59.29,1-9.55,2.65-.29-1,2-.56-.84-3-1.91.53-.29-1,9.26-2.56.29,1-1.93.54Zm-4.15,1.15,2.89-.81-.83-3-2.9.8Zm5.2-11.46.29,1.05-2.07.58,1,3.44-1.28.35-2.19-7.89,1.28-.35.94,3.39Z"/><path d="M170.2,286.52l1.21-.34,3.6,13-1.22.34-1.88-6.8-1.76.49c.65,2.76,0,4.76-1.73,5.23s-3.5-1-4.34-4-.18-5.17,1.64-5.67,3.26.86,4.14,3.44l1.76-.49Zm-1.33,6.5c-.62-2.24-1.73-3.46-2.82-3.16s-1.43,1.92-.8,4.16,1.72,3.51,2.84,3.2S169.5,295.3,168.87,293Zm5.23-7.92,3.87,14-1.22.33-3.87-13.95Z"/><path d="M190.16,287.05c.82,3-.13,5.28-2.2,5.85s-4.07-.92-4.9-3.89.13-5.28,2.2-5.85S189.33,284.08,190.16,287.05Zm-5.88,1.63c.63,2.27,2,3.46,3.37,3.08s1.91-2.1,1.28-4.37-2-3.45-3.35-3.08S183.65,286.42,184.28,288.68Zm8-8.63,3.88,14-1.28.36-3.88-14Z"/><path d="M202.81,278.61l2.51,9.07-6.41,1.78-2.51-9.07Zm-4.88,2.46,1.95,7L203.8,287l-2-7Zm8.7-5,3.87,14-1.27.36-3.88-14Z"/><path d="M222.59,276.94a3.61,3.61,0,1,1-.28-1l2.84-.79-1.08-3.87,1.29-.36,2.85,10.28-1.29.36-1.48-5.36Zm-3.06,2.76a2.35,2.35,0,0,0,1.74-3,2.47,2.47,0,0,0-4.76,1.32A2.35,2.35,0,0,0,219.53,279.7Zm9.72,3.67.29,1.05L220.22,287,219,282.61l1.29-.35.93,3.34Z"/><path d="M242.41,272.28l.29,1.05L230,276.84l-.28-1,9.39-2.61a17.14,17.14,0,0,0-.72-4.12l-8.17,2.27-.29-1,9.43-2.62.28,1a18.28,18.28,0,0,1,.75,4.15Zm-2.27,3.11,1.26-.35,1.6,5.78-9.38,2.6-1.6-5.77,1.26-.35.51,1.83,6.86-1.9Zm.79,2.83-6.86,1.91.53,1.91,6.86-1.9Z"/><path d="M250.22,266.8l-7.1,2-.28-1,2.93-.81-.42-1.53,1.26-.35.42,1.53,2.91-.81Zm-5.66,4.91c-.4-1.45.56-2.74,2.32-3.23s3.24.13,3.64,1.57-.56,2.72-2.31,3.21S245,273.14,244.56,271.71Zm1.15-.32c.24.87,1.13,1.22,2.23.92s1.68-1.07,1.44-1.94-1.15-1.24-2.24-.94S245.47,270.52,245.71,271.39Zm9.48,1.49a3.81,3.81,0,0,0,3.71,2.52l-.33,1.11a4.76,4.76,0,0,1-3.55-1.74,4.7,4.7,0,0,1-1.81,3.36,4.43,4.43,0,0,1-3.31-1.89,5.09,5.09,0,0,1-2.12,3.27l-.86-.79a4,4,0,0,0,1.89-4.07l-.13-.48,1.22-.35.14.49a3.73,3.73,0,0,0,2.8,2.6,4,4,0,0,0,1.09-3.68l-.14-.48,1.26-.35Zm-1.58-.75-1.2.33-2.28-8.2,1.2-.33,1,3.61,1.76-.49L253,263.22l1.23-.34,2.39,8.64-1.23.34-1-3.77-1.76.49Z"/><path d="M264.17,261.74c1.1,4,.43,8-3.57,11.53l-1-.8c3.24-2.88,4.23-6,3.56-9.35l-5.09,1.41-.28-1Zm4.1-2.74,3.86,13.94-1.27.35-2-7.31-3.27.91-.29-1.05,3.27-.9L267,259.35Z"/><path d="M275.5,267a32.88,32.88,0,0,0,6.16-2.37l.45,1a33.8,33.8,0,0,1-6.47,2.48l-1.1.31L272,259.4l1.26-.35Zm10.4-5.81-2.24.62,2,7.33-1.27.35-3.87-13.95,1.27-.36,1.55,5.57,2.24-.62Z"/><path d="M299.23,258.53a6.1,6.1,0,0,1-4.2-2.21,6.06,6.06,0,0,1-2.47,4.49l-.95-.83a5.3,5.3,0,0,0,2.14-5.75l-.4-1.44,1.28-.35.43,1.54a4.9,4.9,0,0,0,4.57,3.37Zm4.66,2.85c.45,1.62-1.05,3-3.88,3.81s-4.86.36-5.31-1.26,1.05-3,3.9-3.83S303.44,259.75,303.89,261.38Zm-1.27.35c-.27-1-1.69-1.2-3.75-.63s-3.17,1.5-2.89,2.48,1.68,1.19,3.75.61S302.89,262.7,302.62,261.73Zm1-8.67.29,1.05-2.07.58,1.05,3.79-1.27.36-2.35-8.45,1.28-.35,1,3.59Z"/><path d="M308.43,258a22.91,22.91,0,0,0,4.6-1.73l.4,1a23.75,23.75,0,0,1-5,1.85l-.92.25L305,250.61l5.2-1.44.29,1-3.94,1.1Zm7.48-12.26,3.87,14-1.23.34-2-7.31-2,.55,1.84,6.61-1.2.33-3.59-12.94,1.2-.33,1.47,5.29,2-.55-1.55-5.6Z"/><path d="M327.42,250.45,321,252.24l-1.78-6.43,1.26-.34.58,2.1,4-1.1-.58-2.1,1.25-.35Zm-2.17-3-3.95,1.09.64,2.3,3.95-1.09Zm7.24,5.93c.46,1.65-1,3.08-3.87,3.87s-4.87.33-5.32-1.32,1-3.09,3.88-3.88S332,251.75,332.49,253.4Zm-1.27.35c-.28-1-1.7-1.22-3.75-.65s-3.17,1.5-2.9,2.49,1.69,1.25,3.77.67S331.49,254.75,331.22,253.75Zm1-8.72.29,1.05-2.07.58,1.07,3.83-1.28.35-2.33-8.4,1.28-.36,1,3.52Z"/><path d="M341.92,245c.82,3-.13,5.28-2.2,5.86s-4.07-.92-4.89-3.89.12-5.28,2.19-5.85S341.1,242,341.92,245ZM336,246.58c.63,2.27,2,3.47,3.37,3.09s1.91-2.11,1.28-4.38-2-3.45-3.35-3.07S335.41,244.33,336,246.58Zm8-8.63,3.88,14-1.27.35-3.88-14Z"/><path d="M357.05,241.6c-2.09.57-3.95-.28-4.47-2.14s.65-3.51,2.74-4.09,4,.28,4.47,2.1S359.15,241,357.05,241.6Zm-.29-1a2.17,2.17,0,1,0-2.93-1.43A2.23,2.23,0,0,0,356.76,240.55Zm1.35,7.23,8.09-2.24.28,1-9.33,2.59-1-3.54,7.56-2.09-.41-1.47-7.6,2.11-.28-1,8.86-2.46.95,3.43-7.57,2.1Zm6.94-12.41.3,1.06-2.07.57.84,3.05-1.27.35-2-7.1,1.27-.36.83,3Z"/><path d="M376.15,231.69l-8.51,2.36-.28-1,9.78-2.72.38,1.39a33,33,0,0,1,1.27,6.6l-1.32.21a31.13,31.13,0,0,0-1.22-6.46Zm5.15,7.74.29,1L369,244l-.29-1.05,4.9-1.35-1.38-5,1.27-.35,1.39,5Z"/><path d="M385.75,230.79c-.54-1.93.62-3.68,2.72-4.26s4,.31,4.56,2.24-.64,3.68-2.76,4.26S386.28,232.72,385.75,230.79Zm1.24-.35a2.29,2.29,0,0,0,3,1.54,2.29,2.29,0,1,0-1.22-4.39A2.3,2.3,0,0,0,387,230.44Zm9.78,2.95a3.94,3.94,0,0,0,3.76,2.69l-.37,1.15a4.84,4.84,0,0,1-3.53-1.86,5,5,0,0,1-1.82,3.47,4.61,4.61,0,0,1-3.34-2,5.1,5.1,0,0,1-2,3.34l-.91-.79a4.1,4.1,0,0,0,1.84-4.24l-.21-.75,1.23-.34.21.75a4,4,0,0,0,2.85,2.78,4.28,4.28,0,0,0,1.09-3.87l-.21-.75,1.24-.35Zm1.18-1.78-1.27.35-2.21-8,1.27-.36Z"/><path d="M411.23,225l-9.49,2.64-1.31-4.73,1.28-.36,1,3.69,8.21-2.28Zm2,1.47.28,1L400.83,231l-.28-1ZM405,234.6l8.38-2.32.29,1L404,236l-1.13-4.07,1.28-.36Z"/><path d="M423,220.08a7.31,7.31,0,0,0,5.2,5l-.51,1.23a8,8,0,0,1-4.58-3.41,8,8,0,0,1-2.19,5.59l-1.05-.82a7.66,7.66,0,0,0,1.87-7.23l-.7-2.51,1.26-.35Zm9.18.68-2.3.64,2,7.24-1.28.35-3.86-13.94,1.27-.35,1.57,5.64,2.3-.63Z"/><path d="M441.88,218.52a39.19,39.19,0,0,1-6.5,2.29l-1.11.3-1.11-4,5-1.39-.5-1.79-5,1.4-.28-1.05,6.28-1.74,1.06,3.81-5,1.39.55,2a35.65,35.65,0,0,0,6.22-2.21Zm-5.79,3.61,8.79-2.44,1.32,4.76-8.79,2.44Zm2.28,3.39,6.3-1.75-.75-2.72-6.3,1.75Zm7.37-10.77-2.07.57,1,3.69-1.27.35-2.31-8.3,1.28-.36,1,3.57,2.07-.58Z"/><path d="M450.29,216.2a1.07,1.07,0,1,1,2-.57,1.07,1.07,0,0,1-.72,1.36A1.09,1.09,0,0,1,450.29,216.2Z"/><path d="M460.3,209.72a7.29,7.29,0,0,0,5.2,5l-.51,1.23a8,8,0,0,1-4.58-3.4,8,8,0,0,1-2.19,5.58l-1-.81a7.7,7.7,0,0,0,1.86-7.24l-.69-2.5,1.26-.35Zm9.19.69-2.31.64,2,7.23-1.27.35-3.87-13.93,1.28-.36,1.56,5.65,2.3-.64Z"/><path d="M477.75,208.32l.38,1.37,4.06-1.13.87,3.14-8.2,2.28.38,1.38,8.62-2.39.28,1-9.86,2.73-.92-3.31,8.18-2.27-.35-1.25L473,212.16l-.26-1,4.15-1.15-.38-1.37-5.68,1.58-.28-1,12.63-3.5.28,1Zm3.43-3.32-9.35,2.6-1.17-4.25,9.34-2.59ZM479,202.12l-6.84,1.9.62,2.22,6.84-1.9Z"/><path d="M497.48,201.89l.29,1-12.63,3.5-.29-1Zm-12.14-.25c-.44-1.57,1.16-2.94,4.22-3.79s5.14-.5,5.58,1.07-1.17,2.92-4.24,3.77S485.77,203.21,485.34,201.64Zm1.3-.36c.26.93,1.71,1.1,4,.46s3.45-1.52,3.19-2.46-1.71-1.1-4-.46S486.38,200.34,486.64,201.28Zm2.91,10.11,8.62-2.39.27,1-9.86,2.73-.93-3.34,8.19-2.27-.35-1.24-8.23,2.28-.27-1,9.49-2.63.87,3.14L489.16,210Z"/><path d="M89.19,330.36c1.1,4,.27,8.06-3.61,11.57l-1-.8c3.07-2.78,4.24-6,3.62-9.37l-5.12,1.42-.29-1.06Zm7.3,3.6-2.24.62,2,7.24-1.27.35-3.87-14,1.27-.35L94,333.52l2.24-.62Z"/><path d="M100.68,335.83a42.91,42.91,0,0,0,6.65-2.38l.41,1a41.25,41.25,0,0,1-6.89,2.46l-1.15.32-1.48-5.35,5.13-1.43-.81-2.9L97.36,329l-.29-1,6.47-1.79,1.39,5-5.15,1.43Zm6.72-12.15,3.88,14L110,338l-3.88-14Z"/><path d="M117.79,321.47c1,3.51-.56,6.57-4.55,8.86l-.75-.91a8.48,8.48,0,0,0,4-4L112,327.05l-.51-1,5.29-1.72a5.67,5.67,0,0,0,0-1.48l-5,1.39-.28-1Zm7.94,10.93.27,1L116.53,336l-1-3.47,7.73-2.14-.37-1.34-7.78,2.16-.28-1,9-2.5.91,3.28-7.75,2.15.43,1.52Zm-2-5.37-1.28.35-2-7.28,1.28-.35Z"/><path d="M133.07,326.53a10.06,10.06,0,0,0,1.83-.78l.41,1a11.55,11.55,0,0,1-2.55,1l-.56.15-2.37-8.55,3-.83.29,1-1.82.51Zm3.58-1a10.89,10.89,0,0,0,2.12-.92l.41,1a11.13,11.13,0,0,1-2.83,1.12l-.57.16-2.38-8.55,3.08-.86.29,1-1.91.53Zm4.29-11.16,3.87,13.94-1.21.34-2-7.21-1.64.46,1.81,6.52-1.18.32L137,315.82l1.18-.33,1.5,5.38,1.63-.45-1.58-5.69Z"/><path d="M156.59,317.86l-6.36,1.76-1.72-6.19,6.36-1.76.34,1.21,3.2-.89-.62-2.25,1.29-.36,2.28,8.24-1.29.36-.61-2.21-3.2.89ZM153.91,313l-3.86,1.07,1.16,4.15,3.85-1.07Zm8.33,7.62c.46,1.67-1,3.13-3.92,3.92s-4.9.32-5.37-1.34,1.05-3.12,3.91-3.92S161.78,319,162.24,320.66ZM161,321c-.28-1-1.73-1.28-3.84-.69s-3.19,1.54-2.91,2.57,1.73,1.28,3.81.7S161.27,322,161,321Zm-5.49-7.1.48,1.72,3.21-.88L158.7,313Z"/><path d="M167.6,311a7.29,7.29,0,0,0,5.2,5l-.51,1.23a8,8,0,0,1-4.58-3.4,8,8,0,0,1-2.19,5.58l-1.05-.81a7.7,7.7,0,0,0,1.87-7.24l-.7-2.5,1.26-.35Zm9.18.69-2.3.64,2,7.23-1.28.35L171.35,306l1.27-.36,1.57,5.65,2.3-.64Z"/><path d="M185.64,306.63c.54,1.95-.64,3.72-2.82,4.32s-4.1-.3-4.64-2.24.66-3.72,2.82-4.32S185.1,304.67,185.64,306.63ZM179,314.44a66.24,66.24,0,0,0,9-3l.38.91a51.32,51.32,0,0,1-8.87,3.12Zm.41-6.08a2.61,2.61,0,1,0,1.88-2.88A2.35,2.35,0,0,0,179.42,308.36Zm8.14-6.9,3.88,14-1.28.35-3.88-14Z"/><path d="M204.08,305.41l-6.46,1.79-1.92-6.91,1.26-.35.65,2.34,3.95-1.1-.65-2.33,1.25-.35Zm-2.24-3.23-4,1.09.7,2.55,4-1.09Zm-.08,8.91,8-2.22.29,1-9.3,2.58-1.21-4.37,1.27-.36Zm7.16-11,.3,1.07-2.07.57,1.37,4.95-1.28.35-2.84-10.23,1.28-.36,1.17,4.22Z"/><path d="M223.77,299.18l.29,1-12.64,3.5-.28-1,5.69-1.58-.46-1.66-4,1.11-1.44-5.21,1.26-.35.44,1.58,6.78-1.88-.44-1.58,1.26-.35,1.45,5.21-4,1.11.46,1.67Zm-10.44,0,6.79-1.88-.45-1.62-6.79,1.88Zm-.11,5.49,9.66-2.68,1.2,4.36-1.27.35-.93-3.33-8.38,2.33Z"/><path d="M237.74,294l.29,1-12.63,3.51-.29-1Zm-12.14-.25c-.44-1.57,1.16-2.94,4.22-3.79s5.14-.5,5.58,1.07-1.17,2.92-4.23,3.77S226,295.35,225.6,293.78Zm1.3-.37c.26.94,1.72,1.1,4,.47s3.45-1.53,3.19-2.46-1.71-1.1-4-.46S226.64,292.48,226.9,293.41Zm2.91,10.12,8.62-2.39.27,1-9.86,2.73-.93-3.34,8.19-2.27-.35-1.25-8.23,2.29-.27-1,9.49-2.63.88,3.14-8.2,2.28Z"/><path d="M251.37,293.71c.77-.24,1.51-.53,2.22-.83l.33.91a62.35,62.35,0,0,1-8.75,3l-.44-1c.59-.17,1.23-.34,1.9-.55l-1.91-6.87-1.56.43-.28-1,7.9-2.19.29,1-1.56.43Zm-3.52,1.15c.76-.23,1.53-.48,2.31-.73l-1.88-6.78L246,288Zm5.72-11.69,3.87,13.94-1.28.35-3.86-13.94Z"/><path d="M261.76,283.29l3.44-1,.28,1-8.23,2.28-.28-1,3.51-1-.57-2.07,1.27-.35Zm4.28,4.63a3.52,3.52,0,1,1-4.3-2.28A3.29,3.29,0,0,1,266,287.92Zm-1.21.34a2.27,2.27,0,0,0-4.37,1.21,2.27,2.27,0,0,0,4.37-1.21Zm6.52-2.7-2.29.63,2,7.14-1.27.36-3.87-13.94,1.28-.35,1.58,5.72,2.29-.63Z"/><path d="M278.51,277.86c1.11,4,.25,8.09-3.76,11.65l-1-.85c3.25-2.83,4.37-6,3.72-9.41l-5.24,1.45-.29-1Zm3.67-2.64,3.87,13.95-1.28.36-3.87-14Z"/><path d="M291.38,276.47c-.48-1.71.68-3.29,2.76-3.87s3.87.19,4.35,1.9-.69,3.27-2.76,3.84S291.85,278.17,291.38,276.47Zm9.51,2.2a37.85,37.85,0,0,1-3.87,1.58l1.39,5-1.27.36-1.38-4.95c-1.36.45-2.68.83-3.83,1.15l-.47-1a66.87,66.87,0,0,0,9.05-3Zm-8.28-2.54c.3,1.09,1.47,1.55,2.84,1.17s2.11-1.37,1.81-2.46-1.47-1.55-2.82-1.18S292.31,275,292.61,276.13Zm8.23-6.07L304.71,284l-1.27.36-3.87-14Z"/><path d="M308.43,270.5l2.83-.79.29,1.05-6.92,1.92-.29-1.05,2.83-.78-.55-2,1.26-.35Zm3.79,4.49a3.1,3.1,0,1,1-3.87-2.34A3.07,3.07,0,0,1,312.22,275Zm-1.13.32a1.94,1.94,0,1,0-1.26,2.64A2,2,0,0,0,311.09,275.31Zm4.42-9.35,3.87,14-1.23.34-1.94-7-1.79.5,1.76,6.35-1.2.33-3.59-13,1.19-.33,1.55,5.57,1.79-.5-1.64-5.89Z"/><path d="M335.5,266.31a4.67,4.67,0,0,1-3.36-1.79,4.79,4.79,0,0,1-1.93,3.42,4.8,4.8,0,0,1-3.43-2,5,5,0,0,1-1.94,3.3l-.89-.76a4,4,0,0,0,1.71-4.08l-.24-.88,1.27-.36.25.89a4.11,4.11,0,0,0,2.92,2.62,4,4,0,0,0,1.15-3.75l-.24-.89,1.26-.35.24.89a3.83,3.83,0,0,0,3.61,2.6Zm1.35.85.28,1-12.66,3.51-.29-1Zm-10.43,5.55,9.52-2.64,1.31,4.7-9.52,2.64Zm2.27,3.33,7-2-.74-2.66-7,1.95Z"/><path d="M339,269.46l3.3-2.37,2.09-1.52,0-.06-2.57-.23-4.05-.33-.34-1.23,8.26.86.32,1.13-6.64,5Z"/><path d="M48.54,183.86a12.4,12.4,0,0,1-6-3.13A13.51,13.51,0,0,1,39,167.79,12.39,12.39,0,0,1,42.48,162a15.29,15.29,0,0,1,6.46-3.52,15,15,0,0,1,7.32-.3,12.45,12.45,0,0,1,6,3.14,12.7,12.7,0,0,1,3.52,6,12.83,12.83,0,0,1,.07,7A12.43,12.43,0,0,1,62.32,180a16.19,16.19,0,0,1-13.78,3.82Zm9.69-9.16a8.08,8.08,0,0,0-2.72-9.82,6.12,6.12,0,0,0-5-.6,6.21,6.21,0,0,0-4,3.08,8,8,0,0,0,2.72,9.81,6.62,6.62,0,0,0,8.94-2.47Z"/><path d="M89.38,150.2q3.54,1.94,5,7.28l3.86,13.93-7.05,2-3.57-12.85a6.61,6.61,0,0,0-2.46-4,4.86,4.86,0,0,0-4.06-.41,5.87,5.87,0,0,0-3.8,2.83,7.12,7.12,0,0,0-.22,5.35l3.34,12-7.06,2L66.63,154l6.74-1.87.79,2.84A9.75,9.75,0,0,1,77,151.61a12.66,12.66,0,0,1,4.33-2.1A10.36,10.36,0,0,1,89.38,150.2Z"/><path d="M125.34,152.94l-18.41,5.11a6,6,0,0,0,3.34,2.92,8.11,8.11,0,0,0,5,0,9.55,9.55,0,0,0,3.21-1.5A8.44,8.44,0,0,0,120.7,157l4.89,3q-2.36,4.89-9,6.72a16.58,16.58,0,0,1-7.73.42,12.25,12.25,0,0,1-6.12-3.1,12.7,12.7,0,0,1-3.52-6,12.92,12.92,0,0,1-.09-6.92,12.33,12.33,0,0,1,3.42-5.77,14.92,14.92,0,0,1,13.08-3.7,11.7,11.7,0,0,1,5.77,3.15A13.73,13.73,0,0,1,125,151Zm-18.68-3.25a5.94,5.94,0,0,0-1,4.26l12-3.32a6,6,0,0,0-3-3.13,6.19,6.19,0,0,0-4.36-.28A6.29,6.29,0,0,0,106.66,149.69Z"/></svg>