<svg id="Layer_1" data-name="Layer 1" xmlns="http://www.w3.org/2000/svg" viewBox="0 0 358.87 358.87"><defs><style>.cls-1{fill:#df7a97;}.cls-2{fill:#c3577b;}.cls-3{fill:#ffb000;}.cls-4{fill:#f1f1ef;}.cls-5{fill:#06b671;}.cls-6{fill:#cf8100;}.cls-7{fill:#d3d9df;}</style></defs><circle class="cls-1" cx="179.43" cy="179.43" r="179.43"/><path class="cls-2" d="M59.51,242.42l20.67,5.11-2.56,10.34L57,252.75Z"/><path class="cls-2" d="M86.7,276.56,97,279.12l-5.11,20.67-10.34-2.56Z"/><path class="cls-2" d="M279.81,195A17.51,17.51,0,1,1,301,182.22,17.53,17.53,0,0,1,279.81,195Zm5.86-23.67a6.87,6.87,0,1,0,5,8.32A6.89,6.89,0,0,0,285.67,171.35Z"/><path class="cls-3" d="M150.75,255.85c-13.11-3.24-28.71-7.84-39.4-17.65l-.09,0-7,28.11a10.67,10.67,0,0,0,7.78,12.89l62,15.35A10.68,10.68,0,0,0,187,286.75l7-28.17C179.89,262.32,163.91,259.11,150.75,255.85Z"/><path class="cls-4" d="M146,122.84A16.07,16.07,0,0,0,124,117.42a15.85,15.85,0,0,0-7.05,9.44l-.11,0-16,64.59c-11.51,46.5,24,58,49.85,64.43s62.65,12.77,74.15-33.74L256.24,95.52a16,16,0,0,0-31-7.67l2.56-10.34a16,16,0,0,0-31-7.67l-2.56,10.33a16,16,0,0,0-31-7.67l-13.86,56Z"/><path class="cls-5" d="M174,261.61a167.14,167.14,0,0,0,18.32,3.53l1.62-6.56c-10.09,2.68-21.16,1.73-31.48-.19,3.93,1.21,7.83,2.3,11.54,3.22Z"/><path class="cls-6" d="M127.55,272l5.35-21.59c-7.86-2.91-15.5-6.69-21.55-12.25l-.09,0-7,28.11a10.67,10.67,0,0,0,7.78,12.89l23.25,5.76A10.68,10.68,0,0,1,127.55,272Z"/><path class="cls-7" d="M205.82,66.59a15.94,15.94,0,0,1,11.66,19.34L220,75.59a15.82,15.82,0,0,1,6.39-9.2,15.9,15.9,0,0,0-28.51.33A15.85,15.85,0,0,1,205.82,66.59Z"/><path class="cls-7" d="M251,83.27,248.49,93.6a15.87,15.87,0,0,1,6.39-9.21A15.62,15.62,0,0,0,251.5,80,15.7,15.7,0,0,1,251,83.27Z"/><path class="cls-7" d="M124.15,197.17l16-64.58.11,0a15.91,15.91,0,0,1,6.31-8.77l-.6-1A16.07,16.07,0,0,0,124,117.42a15.85,15.85,0,0,0-7.05,9.44l-.11,0-16,64.59c-11.51,46.5,24,58,49.85,64.43,3.71.92,7.66,1.82,11.7,2.58C138.94,251.16,114.29,237,124.15,197.17Z"/><path class="cls-7" d="M169.2,128.59l3.42,5.68,13.86-56a15.81,15.81,0,0,1,6.39-9.21,15.91,15.91,0,0,0-29.64,3.45L151,121.87a15.84,15.84,0,0,1,18.19,6.72Z"/><path d="M172.16,302.28l-62-15.35a18.65,18.65,0,0,1-13.61-22.56l7-28.11L119,240.1l-7,28.11a2.69,2.69,0,0,0,1.94,3.22l62,15.35a2.69,2.69,0,0,0,3.22-1.95l7.06-28.52,15.5,3.84-7.06,28.52A18.65,18.65,0,0,1,172.16,302.28Z"/><path d="M137.52,172.58a23.83,23.83,0,0,1-14.76-10.87l-11-18.22a24,24,0,0,1,8.14-32.89c10.95-6.6,26.28-2.8,32.88,8.14l11,18.23a23.94,23.94,0,0,1-26.26,35.61Zm-3.33-49.22a8,8,0,0,0-8.75,11.87l11,18.23a8,8,0,1,0,13.67-8.25l-11-18.23A8,8,0,0,0,134.19,123.36Z"/><path d="M186.1,146.27l-15.5-3.84,15.88-64.17A8,8,0,1,0,171,74.42l-13.86,56-15.5-3.84,13.86-56A24,24,0,0,1,202,82.09Z"/><path d="M214.62,164l-15.5-3.83L220,75.59a8,8,0,0,0-15.5-3.83L186.1,146.27l-15.5-3.84L189,67.92a24,24,0,1,1,46.5,11.51Z"/><path d="M148.83,263.6c-20.87-5.16-69.75-17.26-55.68-74.1l16-64.59,15.5,3.84-16,64.59c-8.52,34.42,10.53,46.47,44,54.76s56,6.52,64.48-27.91L248.49,93.6A8,8,0,1,0,233,89.77L214.31,165.2l-15.5-3.83,18.67-75.44A24,24,0,1,1,264,97.44L232.66,224C218.59,280.87,169.71,268.77,148.83,263.6Z"/><path d="M181.05,220.68l-24.21-40.29a28.12,28.12,0,0,1-3.05-23,27.67,27.67,0,0,1,13.07-17.11c10.64-6.6,26-5,34.87,3.71a24,24,0,0,1,5.14,6.27l29.54,48.84-13.67,8.26-29.55-48.85a10.07,10.07,0,0,0-2.08-2.62c-5.18-4.93-11.2-4.93-16-1.93a13.31,13.31,0,0,0-4.63,18.14l24.27,40.39Z"/></svg>