<svg id="Layer_1" data-name="Layer 1" xmlns="http://www.w3.org/2000/svg" viewBox="0 0 716.76 169.18"><defs><style>.cls-1{fill:#0b40c4;}.cls-2,.cls-3{fill:#df7a97;}.cls-3{font-size:52.48px;font-family:SDPress-bBasic-KSCpc-EUC-H, Sandoll Press;}</style></defs><rect class="cls-1" x="475.02" y="96.82" width="243.97" height="64.93" transform="translate(9.06 -36.41) rotate(3.52)"/><path class="cls-2" d="M509.34,115.88l-13.45-.83.16-2.56,5.06.31.15-2.43,3.3.2-.15,2.44,5.12.31ZM502,125.1c-3.27-.21-5.5-2.14-5.34-4.77s2.61-4.25,5.89-4,5.49,2.16,5.34,4.74S505.3,125.3,502,125.1Zm-.52,5.25,12.29.75-.16,2.61-15.57-1,.41-6.63,3.28.21Zm.68-7.74c1.44.09,2.52-.51,2.6-1.78s-.93-2-2.37-2.06-2.52.51-2.6,1.75S500.71,122.52,502.18,122.61Zm14.61-4.26-.16,2.71-3-.19-.46,7.43-3.28-.2L510.92,111l3.27.2-.43,7Z"/><path class="cls-2" d="M538.35,119c-.19,3.16-3,5.25-6.54,5s-6.09-2.64-5.9-5.79,3-5.22,6.57-5S538.54,115.9,538.35,119Zm-6.14,6.6-.13,2.14,8.69.53.13-2.13,3.26.2-.58,9.31-15.19-.94.57-9.31Zm-3.09-7.17c-.11,1.72,1.12,2.79,2.86,2.9a2.72,2.72,0,1,0-2.86-2.9Zm2.68,13.9,8.69.54.13-2.09-8.69-.53ZM545,113.09l-.75,12.28-3.31-.2.76-12.29Z"/><path class="cls-2" d="M574.88,114.93l-.83,13.53-3.28-.21.34-5.46-4.12-.25-.26,4.22L556,126.1l.65-10.63,10.77.66-.23,3.78,4.12.25.34-5.44Zm-16.46,13.61,15.57,1-.51,8.31-3.28-.2.35-5.73-12.29-.76Zm5.6-10-4.34-.26-.34,5.51,4.34.27Z"/><path class="cls-2" d="M598.66,127l-.16,2.61-20.68-1.28.16-2.6Zm-8.93,3.79c-.15,2.38,1.94,4.82,7,5.76L595.35,139c-3.72-.73-6.26-2.36-7.52-4.53-1.52,2-4.24,3.3-8,3.57l-1-2.61c5.1-.3,7.47-2.48,7.62-4.86l0-.42,3.32.2Zm6.85-5.64-16-1,.5-8.19,15.79,1-.16,2.63-12.54-.77-.18,3,12.74.78Z"/><path class="cls-2" d="M619.93,127.47c-.31,5-3.06,8-6.51,7.82s-5.81-3.52-5.5-8.56,3-8,6.51-7.78S620.24,122.45,619.93,127.47Zm-3.15-.2c.21-3.37-.85-5.26-2.54-5.36s-3,1.63-3.17,5,.82,5.28,2.53,5.39S616.57,130.67,616.78,127.27Zm12.14,2.34-3.32-.2L624.88,141l-3.27-.2,1.4-22.86,3.28.2-.53,8.61,3.33.21Z"/><path class="cls-2" d="M651,134.91l-8.76-.54-.47,7.67-3.28-.2.47-7.67-8.61-.53.16-2.61,20.65,1.27Zm-19.29-7.69c4.71-.29,7.28-2.37,7.73-4.54l-6.58-.4.16-2.61,17,1-.16,2.61-6.48-.4c.19,2.21,2.46,4.59,7.07,5.45l-1.33,2.48c-4-.79-6.66-2.68-7.88-5.09-1.51,2.25-4.42,3.79-8.45,4.09Z"/><path class="cls-2" d="M667.24,131.72l-6.71-.41.63-10.11,2.68.17-.16,2.53,1.37.09.15-2.54,2.66.17Zm-.91,9.07,13,.8-.16,2.53-16.26-1,.39-6.28,12.31.75.08-1.29-12.36-.76.15-2.5,15.59,1-.38,6.16-12.28-.75Zm-1.43-14.35-1.37-.08-.16,2.56,1.37.08Zm9.88,5.75-6.65-.41.62-10.11,2.66.17-.16,2.53,1.32.08.15-2.53,2.69.16Zm-2.36-5.28-1.32-.08-.16,2.55,1.32.08Zm9.35-1-.16,2.65-2.19-.13-.29,4.72-3.2-.2.73-11.79,3.2.19-.27,4.42Z"/><path class="cls-2" d="M687.51,136.81a57.93,57.93,0,0,0,9.62-.16l.19,2.68a63,63,0,0,1-11.27.1l-2.06-.12.58-9.41,7.42.45.22-3.65-7.44-.45.16-2.61,10.8.66-.55,8.84-7.42-.46Zm15.36-14-1.41,22.94-3.28-.2,1.41-22.94Z"/><rect class="cls-1" x="2.25" y="39.26" width="393.31" height="90.22" transform="translate(-11.33 34.54) rotate(-9.65)"/><path class="cls-2" d="M46.15,109.74c-13.9,2.37-15.52-1.62-16.64-8.2l-.22-1.26-2.47.42-1.69-9.91,10-1.7-.43-2.52,14.66-2.5.43,2.52,10-1.69,1.69,9.91-2.48.42.22,1.26C60.26,103.07,60.16,107.35,46.15,109.74Zm0,8.73,34.89-6L83,123.9l-49.55,8.45-3.1-18.2L45,111.65ZM43.76,95.73c-1.31.23-1.22,1-.9,3s.54,2.83,1.85,2.6,1.22-1.09.88-3.06S45.08,95.51,43.76,95.73Zm36.57-7.07,1.81,10.62-3.74.64,1.82,10.67-14.66,2.5-5-29.38,14.66-2.5,1.38,8.09Z"/><path class="cls-2" d="M158.78,93.81l-18.05,3.08-1.27-7.48,49.75-8.49,1.28,7.49-17,2.9,1,5.82-14.67,2.5ZM137.3,70.63,185,62.49l2.91,17.09-47.73,8.14Zm54,25.7,1.5,8.85-48.23,8.22-2.54-14.91L156.71,96l1,6.06Zm-36.13-18.4,15.37-2.62-.52-3L154.67,74.9Z"/><path class="cls-2" d="M191.69,72.28l-1.64-9.61L199.66,61l-.52-3,14.66-2.5.52,3,9.4-1.61,1.64,9.61Zm27.42,14.94.59,3.49,9.41-1.6,1.63,9.6-32.86,5.61-1.64-9.61,8.8-1.5-.6-3.49c-7,.1-8.16-2.72-8.95-7.37-1-6.07-.5-9.33,13.25-11.68s15.34.56,16.37,6.63C225.92,82,225.8,85,219.11,87.22Zm-9.2-9.67c-1.46.25-1.4,1.23-1.18,2.54.18,1.07.47,2.16,1.94,1.91s1.38-1.38,1.2-2.44C211.64,78.24,211.38,77.3,209.91,77.55Zm36.19-9L248,80l-3.74.63L246.92,96l-14.66,2.5L225,55.68l14.66-2.5,2.73,16Z"/><path class="cls-2" d="M100.18,98.29c14.77-2.52,16.37-6.54,15.21-13.36a19.24,19.24,0,0,0-.77-3.12,6.31,6.31,0,0,1-8.24.36A6.3,6.3,0,0,1,95.15,80a6.27,6.27,0,0,1-3.54-1.7c-10,2.52-11,6.3-10,12.34C82.83,97.5,85.57,100.78,100.18,98.29Zm-2-12.57c2.12-.36,2.29.34,2.52,1.71s.3,2-1.83,2.39-2.28-.29-2.51-1.65S96.07,86.09,98.2,85.72Z"/><rect class="cls-2" x="118.21" y="72.76" width="14.87" height="20.82" transform="translate(-12.19 22.3) rotate(-9.68)"/><path class="cls-2" d="M120.84,99.24l-20.93,3.57-.49-2.88-14.66,2.5L88.27,123l50.26-8.57L135,93.86l-14.67,2.5Zm1.6,9.35-20.93,3.57-.37-2.17,20.93-3.57Z"/><text class="cls-3" transform="translate(262.31 85.38) rotate(-9.65)">챕터</text></svg>