<svg id="Layer_1" data-name="Layer 1" xmlns="http://www.w3.org/2000/svg" viewBox="0 0 432.12 293.12"><defs><style>.cls-1,.cls-2{fill:#fff;}.cls-2{font-size:12px;font-family:NotoSansKR-Regular-KSCpc-EUC-H, Noto Sans KR;}.cls-3,.cls-7{letter-spacing:0.23em;}.cls-4{letter-spacing:0.18em;}.cls-5,.cls-6,.cls-7{fill:#000;}.cls-6{letter-spacing:0.23em;}.cls-8{letter-spacing:0.1em;}.cls-9{letter-spacing:0.08em;}.cls-10{font-size:21.09px;fill:#df7a97;}.cls-10,.cls-13{font-family:NotoSansKR-Black-KSCpc-EUC-H, Noto Sans KR;}.cls-11{fill:#0b40c4;}.cls-12{fill:none;stroke:#df7a97;stroke-miterlimit:10;stroke-width:3px;}.cls-13{font-size:25px;}</style></defs><rect class="cls-1" x="0.42" y="54.01" width="431.29" height="239.11"/><text class="cls-2" transform="translate(35.01 212.01)">과자를<tspan class="cls-3" x="33.12" y="0"> </tspan><tspan x="39.22" y="0">먹듯</tspan><tspan class="cls-4" x="61.3" y="0"> </tspan><tspan class="cls-5" x="66.18" y="0">5-10분의</tspan><tspan class="cls-6" x="112.4" y="0"> </tspan><tspan class="cls-5" x="118.5" y="0">짧은</tspan><tspan class="cls-7" x="140.58" y="0"> </tspan><tspan class="cls-5" x="146.68" y="0">시간에</tspan><tspan class="cls-7" x="179.8" y="0"> </tspan><tspan class="cls-5" x="185.9" y="0">문화</tspan><tspan class="cls-7" x="207.98" y="0"> </tspan><tspan class="cls-5" x="214.08" y="0">콘텐츠를</tspan><tspan class="cls-6" x="258.24" y="0"> </tspan><tspan class="cls-5" x="264.34" y="0">소비한다는</tspan><tspan class="cls-7" x="319.54" y="0"> </tspan><tspan class="cls-5" x="325.64" y="0">뜻</tspan><tspan x="336.68" y="0">이다. </tspan><tspan x="0" y="21">시간과</tspan><tspan class="cls-8" x="33.12" y="21"> </tspan><tspan x="37.72" y="21">장소에</tspan><tspan class="cls-8" x="70.84" y="21"> </tspan><tspan x="75.43" y="21">구애</tspan><tspan class="cls-8" x="97.51" y="21"> </tspan><tspan x="102.11" y="21">받지</tspan><tspan class="cls-8" x="124.19" y="21"> </tspan><tspan x="128.78" y="21">않고</tspan><tspan class="cls-8" x="150.86" y="21"> </tspan><tspan x="155.46" y="21">즐길</tspan><tspan class="cls-8" x="177.54" y="21"> </tspan><tspan x="182.14" y="21">수</tspan><tspan class="cls-8" x="193.18" y="21"> </tspan><tspan x="197.77" y="21">있는,</tspan><tspan class="cls-9" x="223.19" y="21"> </tspan><tspan x="226.86" y="21">짧은</tspan><tspan class="cls-8" x="248.95" y="21"> </tspan><tspan x="253.54" y="21">시간에</tspan><tspan class="cls-8" x="286.66" y="21"> </tspan><tspan x="291.26" y="21">간편하게</tspan><tspan class="cls-8" x="335.42" y="21"> </tspan><tspan x="340.01" y="21">문화 </tspan><tspan x="0" y="42">생활을 즐기는 라이프 스타일 또는 문화 트렌드를 말한다.</tspan></text><text class="cls-10" transform="translate(186.46 50.39)">지식백과</text><rect class="cls-11" width="432.12" height="56.99"/><text class="cls-10" transform="translate(177.14 36.26)">한입사전</text><polyline class="cls-12" points="31.61 18.95 22.07 28.49 31.61 38.04"/><line class="cls-12" x1="416.53" y1="38.77" x2="409.17" y2="32.73"/><path class="cls-12" d="M411,27.3a9.08,9.08,0,1,1-9.08-9.08A9.08,9.08,0,0,1,411,27.3Z"/><text class="cls-13" transform="translate(166.56 134.19)">스낵 컬처</text></svg>