<svg id="Layer_1" data-name="Layer 1" xmlns="http://www.w3.org/2000/svg" viewBox="0 0 117.42 81.27"><defs><style>.cls-1{fill:#fff;}.cls-2,.cls-3{fill:#0b40c4;}.cls-3{stroke:#0b40c4;stroke-miterlimit:10;stroke-width:2px;}</style></defs><path class="cls-1" d="M29.73,80.27C13.89,80.27,1,62.49,1,40.64S13.89,1,29.73,1,58.45,18.78,58.45,40.64,45.56,80.27,29.73,80.27Z"/><path class="cls-2" d="M29.73,2C45,2,57.45,19.3,57.45,40.64S45,79.27,29.73,79.27,2,62,2,40.64,14.41,2,29.73,2m0-2C13.33,0,0,18.23,0,40.64S13.33,81.27,29.73,81.27,59.45,63,59.45,40.64,46.12,0,29.73,0Z"/><ellipse class="cls-3" cx="21.6" cy="53.99" rx="15.16" ry="21.13"/><path class="cls-1" d="M87.7,80.27C71.86,80.27,59,62.49,59,40.64S71.86,1,87.7,1s28.72,17.78,28.72,39.64S103.54,80.27,87.7,80.27Z"/><path class="cls-2" d="M87.7,2C103,2,115.42,19.3,115.42,40.64S103,79.27,87.7,79.27,60,62,60,40.64,72.38,2,87.7,2m0-2C71.31,0,58,18.23,58,40.64S71.31,81.27,87.7,81.27,117.42,63,117.42,40.64,104.09,0,87.7,0Z"/><ellipse class="cls-3" cx="79.38" cy="53.99" rx="15.16" ry="21.13"/></svg>