<svg id="Layer_1" data-name="Layer 1" xmlns="http://www.w3.org/2000/svg" viewBox="0 0 439.75 101.22"><defs><style>.cls-1{fill:#fff;}.cls-2{fill:#0b40c4;}.cls-3{fill:none;stroke:#0b40c4;stroke-miterlimit:10;stroke-width:3.59px;}</style></defs><polygon class="cls-1" points="199.66 50.66 183.44 87.77 185.46 95.71 189.78 98.95 195.27 97.57 211.28 60.56 208.79 73.22 215.07 77.45 220.44 76.38 226.68 82.06 233.93 80.85 239.87 87.68 247.3 86.92 266.62 41.41 266.01 22.55 252.13 7.52 237.9 0 220.23 -0.54 203.98 7.91 193.53 26.59 188.26 41.57 199.66 50.66"/><path class="cls-2" d="M186.83,43.69c1,1.93,5.56,5,10.49,7.91l-.07.11L182.1,88.44a9.52,9.52,0,1,0,17.58,7.25l8.15-19.75a9.32,9.32,0,0,0,12.11,3.11,9.33,9.33,0,0,0,13.25,5.46,9.42,9.42,0,0,0,5.34,5.83,9.75,9.75,0,0,0,12.43-5l.14-.22.11-.25,3.69-9L257,70.71l7.65-18.55,2.24-5.43C274.62,28.1,265.32,9,244.31.37s-41-1.71-48.73,16.93l-9.08,22A6,6,0,0,0,186.83,43.69Zm2.08,53.16a5,5,0,0,1-2.45-6.61l15-36.29c1.76,1,3.46,1.89,4.91,2.65a18.9,18.9,0,0,0,3.72,1.54L195.31,93.89A5,5,0,0,1,188.91,96.85Zm24.93-21.8a5.06,5.06,0,0,1-2.56-6.67L215,59.45l.17-.93a8.38,8.38,0,0,0,4.56-2.62,9.32,9.32,0,0,0,2.35-5,4.25,4.25,0,0,1,1.31.31,5,5,0,0,1,2.6,6.46l-.1.18-6,14.5-.13.69A4.92,4.92,0,0,1,213.84,75.05Zm13.24,5.46a5,5,0,0,1-2.7-6l.34-.62,6.08-14.75.11-.56a4.91,4.91,0,0,1,5.82-1.89,5,5,0,0,1,2.62,6.38l0,0-.1.25L233.4,77.51l-.15.35-.06.34A5,5,0,0,1,227.08,80.51ZM240.32,86a5,5,0,0,1-2.7-6l.34-.62,6.23-15.12a4.91,4.91,0,0,1,5.91-2,5.06,5.06,0,0,1,2.56,6.67l-2.14,5.18-3.69,9A5.06,5.06,0,0,1,240.32,86ZM199.93,19.1C206.56,3,224.06-2.86,242.5,4.74s26.68,24.14,20.05,40.2l-2.24,5.42L255.9,61.07a9.23,9.23,0,0,0-12-2.77,9.33,9.33,0,0,0-13.37-5.52,9.5,9.5,0,0,0-5.38-5.94,9.35,9.35,0,0,0-3.62-.64A10.29,10.29,0,0,0,218.75,42l-12.34-9.61a2.37,2.37,0,1,0-2.9,3.74l12.2,9.47a5.09,5.09,0,0,1,.51,7.15c-.71.78-2.38,2.65-7.63-.27-7.61-4-16.5-9.31-17.52-10.83l-.21-.51,9.08-22Z"/><polyline class="cls-3" points="72.55 13.84 50.17 31.26 47.69 33.18 72.55 52.17"/><line class="cls-3" x1="141.88" y1="35.79" x2="47.69" y2="33.18"/><polyline class="cls-3" points="24.86 51.32 2.48 68.74 0 70.67 24.86 89.65"/><line class="cls-3" x1="141.65" y1="73.27" y2="70.67"/><polyline class="cls-3" points="367.2 94.43 389.58 77.01 392.06 75.08 367.2 56.09"/><line class="cls-3" x1="297.87" y1="72.47" x2="392.06" y2="75.08"/><polyline class="cls-3" points="414.89 56.94 437.28 39.52 439.75 37.6 414.89 18.61"/><line class="cls-3" x1="298.1" y1="34.99" x2="439.75" y2="37.6"/></svg>