<svg id="Layer_1" data-name="Layer 1" xmlns="http://www.w3.org/2000/svg" viewBox="0 0 432.01 88.61"><defs><style>.cls-1{fill:#f9f9f9;}</style></defs><path class="cls-1" d="M34.2,49.3C6.7,49.3,4.9,41.1,4.9,28.1V25.6H0V6H19.7V1h29V6H68.4V25.6H63.5v2.5C63.5,41.1,61.9,49.3,34.2,49.3ZM31.4,66.1h69V88.61H2.4v-36h29Zm2.8-44.5c-2.6,0-2.7,1.6-2.7,5.4s.1,5.6,2.7,5.6,2.7-1.7,2.7-5.6S36.8,21.6,34.2,21.6ZM106.81,20V41h-7.4V62.1h-29V4h29V20Z"/><path class="cls-1" d="M255.9,55.6H220.2V40.8h98.41V55.6H284.9V67.1h-29ZM222.2,4h94.41V37.8H222.2Zm95.41,67.1V88.61H222.2V59.1h29v12ZM254.2,23.9h30.4v-6H254.2Z"/><path class="cls-1" d="M326.2,25V6h19V0h29V6h18.6V25ZM374,62.7v6.9h18.6v19h-65v-19H345V62.7c-13.5-2.1-14.8-7.9-14.8-17.1,0-12,2.1-18.1,29.3-18.1,27.4,0,29.3,6.1,29.3,18.1C388.8,54.9,387.6,60.6,374,62.7ZM359.5,41.1c-2.9,0-3.1,1.9-3.1,4.5,0,2.1.2,4.3,3.1,4.3s3.1-2.2,3.1-4.3C362.6,43,362.4,41.1,359.5,41.1ZM432,35.7V58.2h-7.4V88.61h-29V4h29V35.7Z"/><path class="cls-1" d="M141.8,45c29.2,0,33.6-7.2,33.6-20.7a36.75,36.75,0,0,0-.45-6.24,12.26,12.26,0,0,1-15.95-2,12.28,12.28,0,0,1-20.89-7.76,12.3,12.3,0,0,1-6.25-4.44c-20,1.58-23.16,8.51-23.16,20.45C108.7,37.8,112.9,45,141.8,45Zm.3-24.8c4.2,0,4.3,1.4,4.3,4.1s-.1,4-4.3,4-4.3-1.3-4.3-4S137.9,20.2,142.1,20.2Z"/><rect class="cls-1" x="181.2" y="4" width="29" height="40.6"/><path class="cls-1" d="M181.2,53.6H139.8V47.9h-29V88.61h99.41V47.9h-29Zm0,18.5H139.8V67.8h41.4Z"/></svg>