<svg id="Layer_1" data-name="Layer 1" xmlns="http://www.w3.org/2000/svg" viewBox="0 0 608 157"><defs><style>.cls-1{fill:#f9f9f9;}</style></defs><path class="cls-1" d="M5.67,133.1V85.4H43.51v19H140.7V133.1Zm95.77-37.32V17h37.85V39.48h10.42V66.06H139.29V95.78ZM49,77.75C11.11,77.75,9.19,67,9.19,49.39v-5H2.29V19.76H30v-7H67.88v7H95.63V44.37H88.72v5c0,8.45-.41,15.84-5.53,20.71C77.7,75.32,66.82,77.75,49,77.75Zm0-39c-5.31,0-5.31,4.22-5.31,9.1,0,5,0,9.39,5.31,9.39s5.3-4.35,5.3-9.39C54.26,43,54.26,38.74,49,38.74Z"/><path d="M66.38,14.22v7H94.13V42.87H87.22v6.52c0,9.6-.8,15.57-5.07,19.62C77,74,66.42,76.25,49,76.25S21.09,74,15.86,69c-4.35-4.11-5.17-10.07-5.17-19.62V42.87H3.79V21.26H31.54v-7H66.38M49,58.73c3.81,0,5.41-2.07,6.07-3.81s.73-4,.73-7.08c0-4.72,0-10.6-6.8-10.6s-6.81,5.88-6.81,10.6c0,3.13.05,5.32.73,7.08s2.26,3.81,6.08,3.81m88.83-40.28V41h10.42V64.56H137.79V94.28H102.94V18.45h34.85M42,86.9v19H139.2V131.6H7.17V86.9H42M69.38,11.22H28.54v7H.79V45.87h6.9v3.52C7.69,67.7,10.22,79.25,49,79.25c39,0,41.26-11.55,41.26-29.86V45.87h6.91V18.26H69.38v-7ZM49,55.73c-3.66,0-3.81-2.4-3.81-7.89s.15-7.6,3.81-7.6,3.8,2.25,3.8,7.6-.14,7.89-3.8,7.89Zm91.83-40.28H99.94V97.28h40.85V67.56h10.42V38H140.79V15.45ZM45,83.9H4.17v50.7h138V102.91H45v-19Z"/><path class="cls-1" d="M315.23,133.1V94.55h37.84v16.9h93.52V133.1Zm47.46-30.28V86.62H312.41V68.78H448V86.62H400.54v16.2ZM315.23,61.55V17h130v44.6ZM357.3,45h45.81V33.52H357.3Z"/><path d="M443.69,18.45v41.6h-127V18.45h127m-87.89,28h48.81V32H355.8V46.48m90.7,23.8V85.12H399v16.2H364.19V85.12H313.91V70.28H446.5M351.57,96.05V113h93.52V131.6H316.73V96.05h34.84m95.12-80.6h-133v47.6h133V15.45Zm-87.89,28V35h42.81v8.46Zm90.7,23.8H310.91V88.12h50.28v16.2H402V88.12H449.5V67.28ZM354.57,93.05H313.73V134.6H448.09V110H354.57V93.05Z"/><path class="cls-1" d="M559.44,133.1V17h37.85V61.6h10.42V90.29H597.29V133.1Zm-95.77,0V109.34h24.51V96.84l-1.27-.2C468.65,93.8,467.33,86.21,467.33,74c0-15.77,1.77-24,39.77-24s39.77,8.22,39.77,24c0,12.14-1,19.72-19.58,22.6l-1.27.2v12.5h26.2V133.1ZM507.1,66.2c-5.87,0-5.87,4.91-5.87,7.84,0,2.26,0,7.55,5.87,7.55S513,76.3,513,74C513,71.11,513,66.2,507.1,66.2ZM461.7,43.52V19.76h26.76V11.31H526.3v8.45h26.2V43.52Z"/><path d="M524.8,12.81v8.45H551V42H463.2V21.26H490V12.81H524.8m71,5.64V63.1h10.42V88.79H595.79V131.6H560.94V18.45h34.85M507.1,51.55c17.61,0,28.18,1.83,33.27,5.77,4.22,3.28,5,8.21,5,16.72,0,6.51-.44,10.91-2.7,14.12-2.46,3.51-7.42,5.73-15.61,7l-2.54.39v15.29h26.2V131.6H465.17V110.84h24.51V95.55l-2.54-.39c-8.12-1.26-13.07-3.51-15.56-7-2.29-3.26-2.75-7.8-2.75-14.07,0-8.48.79-13.39,5.1-16.71,5.12-3.95,15.66-5.78,33.17-5.78m0,31.54c3.79,0,5.56-1.93,6.39-3.56a12,12,0,0,0,1-5.49c0-2.8,0-9.34-7.36-9.34s-7.37,6.54-7.37,9.34a12,12,0,0,0,1,5.49c.82,1.63,2.6,3.56,6.39,3.56M527.8,9.81H487v8.45H460.2V45H554V18.26H527.8V9.81Zm71,5.64H557.94V134.6h40.85V91.79h10.42V60.1H598.79V15.45ZM507.1,48.55c-38.31,0-41.27,8.59-41.27,25.49,0,13,1.83,21.13,20.85,24.08v9.72H462.17V134.6h91.55V107.84h-26.2V98.12c19.16-3,20.85-11,20.85-24.08,0-16.9-2.68-25.49-41.27-25.49Zm0,31.54c-4.09,0-4.37-3.09-4.37-6,0-3.66.28-6.34,4.37-6.34s4.36,2.68,4.36,6.34c0,3-.28,6-4.36,6Z"/><path class="cls-1" d="M200.5,71.69c-38.61,0-45.12-8.53-45.12-27.65,0-16.65,4.58-25,30.42-27.24a18.94,18.94,0,0,0,8.11,5.8,18.93,18.93,0,0,0,10.75,14.58,14.18,14.18,0,0,0-3.74-.42c-7,0-7.56,3-7.56,7.28s.53,7.13,7.56,7.13,7.56-2.82,7.56-7.13c0-2.76-.23-5-2.29-6.23a18.4,18.4,0,0,0,6.35,1.12,18.66,18.66,0,0,0,12.12-4.43A18.74,18.74,0,0,0,246,37.67a57.65,57.65,0,0,1,.31,6.37C246.32,60.23,243,71.69,200.5,71.69Z"/><path d="M185.16,18.36a20.51,20.51,0,0,0,7.4,5.32,20.35,20.35,0,0,0,6.59,11.65c-6.69.57-7.29,4.44-7.29,8.71,0,4.55.7,8.63,9.06,8.63S210,48.59,210,44a15.83,15.83,0,0,0-.37-3.82,20.35,20.35,0,0,0,15-3.76,20.26,20.26,0,0,0,20.1,3.42c.08,1.28.12,2.66.12,4.16,0,10.17-2,15.58-7,19.29-6.38,4.68-18.24,6.86-37.31,6.86-18.85,0-30.53-2.17-36.78-6.85-4.92-3.68-6.84-9.09-6.84-19.3,0-9,1.43-14.16,4.92-17.79,4.12-4.28,11.57-6.8,23.36-7.89m1.33-3.12c-28.11,2.23-32.61,12-32.61,28.8,0,19,5.91,29.15,46.62,29.15,41.12,0,47.32-10.14,47.32-29.15a51.2,51.2,0,0,0-.64-8.79,17.25,17.25,0,0,1-22.46-2.83,17.29,17.29,0,0,1-29.41-10.93,17.35,17.35,0,0,1-8.82-6.25Zm14.43,34.43c-5.92,0-6.06-1.83-6.06-5.63s.14-5.78,6.06-5.78S207,40.24,207,44s-.14,5.63-6.06,5.63Z"/><rect class="cls-1" x="257.49" y="16.95" width="37.84" height="54.18"/><path d="M293.84,18.45V69.63H259V18.45h34.85m3-3H256V72.63h40.85V15.45Z"/><path class="cls-1" d="M158.34,133.1V78.78h37.84v8h61.31v-8h37.85V133.1Zm37.84-20.24h61.31v-9H196.18Z"/><path d="M293.84,80.28V131.6h-134V80.28h34.84v8H259v-8h34.85m-99.16,34.08H259v-12H194.68v12M296.84,77.28H256v8H197.68v-8H156.84V134.6h140V77.28Zm-99.16,34.08v-6H256v6Z"/></svg>